<svg xmlns="http://www.w3.org/2000/svg" viewBox="0 0 711.2 669.7"><path fill="#e6e6e6" d="M516.3 380v185l31 50.4 2.3 3.9h122.1l2.5-239.3H516.3z"/><path opacity=".1" d="M516.3 380v185l31 50.4 1.9-235.4h-32.9z"/><path fill="#e6e6e6" d="M221.6 375.1v185l-31 50.4-2.3 3.8H66.2l-2.5-239.2h157.9z"/><path opacity=".1" d="M221.6 375.1v185l-31 50.4-1.9-235.4h32.9z"/><path fill="#e6e6e6" d="M711.2 371.4v11.1H47.7v-16l61.6-32.1h547.6l54.3 37z"/><path opacity=".1" d="M711.2 371.4v11.1H47.7v-16l663.5 4.9z"/><path fill="#3f3d56" d="M142.6 426.9H113l-12.3-8.6h55.5l-13.6 8.6zM142.6 462.6H113l-12.3-8.6h55.5l-13.6 8.6zM142.6 513.2H113l-12.3-8.6h55.5l-13.6 8.6zM142.6 563.8H113l-12.3-8.7h55.5l-13.6 8.7zM595.3 431.8h29.6l12.3-8.6h-55.5l13.6 8.6zM595.3 467.6h29.6l12.3-8.7h-55.5l13.6 8.7zM595.3 518.1h29.6l12.3-8.6h-55.5l13.6 8.6zM595.3 568.7h29.6l12.3-8.6h-55.5l13.6 8.6zM615.4 120.5H366.2a9.4 9.4 0 0 0-9.4 9.4v167.8a9.4 9.4 0 0 0 9.4 9.5h94.6l-3.5 22.6s-20.3 10.7-6 11 81.3 0 81.3 0 13 0-7.6-11.3l-3.3-22.3h93.7a9.4 9.4 0 0 0 9.4-9.5V130a9.4 9.4 0 0 0-9.4-9.4Z"/><path fill="#f2f2f2" d="M365.8 130.4h250v139.9h-250z"/><circle cx="490.8" cy="126" r="1.6" fill="#f2f2f2"/><circle cx="490.8" cy="294.3" r="6" fill="#f2f2f2"/><path fill="#3f3d56" d="M481.5 358v3.1H311.2v-2.5l.2-.6 4.2-11.4H478l3.5 11.4zM547 354.9c-.3 1.3-1.5 2.7-4.2 4-9.5 4.7-28.8-1.3-28.8-1.3s-14.8-2.5-14.8-9.1a11.9 11.9 0 0 1 1.3-.8c4-2.1 17.2-7.3 40.7.2a9.8 9.8 0 0 1 4.4 3 4.7 4.7 0 0 1 1.4 4Z"/><path d="M547 354.9c-11.7 4.4-22 4.7-32.6-2.6a23.3 23.3 0 0 0-14-4.6c4-2.1 17.3-7.3 40.8.2a9.8 9.8 0 0 1 4.4 3 4.7 4.7 0 0 1 1.4 4Z" opacity=".1"/><ellipse cx="532.4" cy="351" rx="4.1" ry="1.3" fill="#f2f2f2"/><path opacity=".1" d="M481.5 358v3.1H311.2v-2.5l.2-.6h170.1z"/><path d="M94.7 0a8.6 8.6 0 0 0-5 1.1c-1.5 1-2.4 2.8-3.4 4.4A53 53 0 0 1 72 21.8c-4.3 3.2-9.7 7.1-9 12.9a17.4 17.4 0 0 0 2 5.4c4 8 14.8 14.2 13.8 23.3 4-6.6-1.3-9.8 2.6-16.4 1.9-3.2 5.1-6.7 8-4.7.9.6 1.5 1.8 2.5 2.4 2.3 1.4 4.8-1.3 7-3.1 7.1-6.5 17.3-4.8 26.2-2.8 4.3 1 8.9 2.2 11.4 6.2 3.3 5.3-3.1 11-4.7 17a3.3 3.3 0 0 0 3.5 4.1c2.6-.3 5.8-.5 6-1.6 3.3 0 7.5-.3 9-3.8a14.8 14.8 0 0 0 .6-4.3c.5-6 3-11.3 4.7-16.9s2.4-12.2-.4-17.2a19.9 19.9 0 0 0-3.7-4.4C135.5 2.5 114.7-.1 94.7 0Z" fill="#2f2e41"/><path d="M82.1 75s3.5 28.7-9.2 31 11.5 41.4 11.5 41.4l57.6 7-13.8-46.1s-9.2-3.5-3.5-26.5S82.1 75 82.1 75ZM47 569.3l4.6 63.3h24.2l-6.9-63.3H47zM224.3 449.6l3.5 53 26.4-11.6-10.3-43.7-19.6 2.3z" fill="#ffb8b8"/><path d="M29.8 327.6s1.1 66.7 8 88.6 5.8 23 4.6 26.5-2.3 1.1-2.3 6.9-2.3 96.7 0 104.8-6.9 21.8 0 23 39.2 0 40.3-7-9.2-9.1-4.6-13.7 11.5-99 11.5-99l16.1-65.7 30-34.5h63.3l19.5 76s-8 21.9-2.3 21.9 40.3 6.9 40.3-18.5-11.5-100.1-13.8-102.4 1.2-10.4-2.3-13.8-43.7-27.7-58.7-32.3-36-10-36-10ZM254.2 481.8s-17.2-5.7-25.3 11.5-4.6 22-4.6 22 26.5 9.1 31 4.5c2-2 8.4-2.7 15-2.8 10-.3 12.6-14.4 3.2-17.6l-.8-.3c-9.3-2.3-18.5-17.3-18.5-17.3Z" fill="#2f2e41"/><circle cx="108" cy="59.4" r="34.5" fill="#ffb8b8"/><path d="M63.1 120.4s56.4 11.5 70.3-7 19.5 51.9 19.5 51.9l7 73.6-10.4 40.3S95.4 323 78 326.4s-43.7 5.8-43.7 5.8 8-127.8 8-130 20.7-81.8 20.7-81.8Z" fill="#00c896"/><path d="M80.3 98.8s-12.6-7.2-16-.3-35.7 24.2-39.1 24.2 6.9 95.5 2.3 107S1 325.3 13.6 332.2s3.5-7 16.2 10.3 74.8 17.3 78.2 10.4-27.6-58.7-21.8-107 15-115.2 6.9-124.4-12.8-22.7-12.8-22.7ZM121.9 106.6l1.6-5.6s47.9 16 50.2 26.3 1.1 82.9-7 88.6-19.5 15-11.5 28.8 17.3 28.8 24.2 30 19.6 9.1 16.1 17.2-44.9-7-44.9-7-27.6-20.6-26.4-52.9-2.3-125.4-2.3-125.4Z" fill="#2f2e41"/><path d="m162.1 242.4-27.6 51.8s-40.3 41.4-17.3 46 35.7-38 35.7-38l30-42.5Z" fill="#ffb8b8"/><path d="M96.3 9a7.8 7.8 0 0 0-4 .8 9.4 9.4 0 0 0-2.7 3.1 39.8 39.8 0 0 1-11.8 11.6c-3.5 2.2-8 5-7.3 9a11.4 11.4 0 0 0 1.7 3.9 30.2 30.2 0 0 1 3.7 18.8l9.6-14c1.5-2.2 4.1-4.7 6.4-3.3.8.5 1.3 1.3 2.1 1.7 2 1 4-.9 5.7-2.2 5.8-4.5 14.1-3.3 21.4-2 3.4.7 7.2 1.6 9.2 4.5 3.4 4.7-.1 11.5 1.8 17a5 5 0 0 0 2.1-3.3c2.7 0 6.1-.2 7.3-2.7a9.2 9.2 0 0 0 .5-3c.5-4.2 2.5-8 3.9-12s1.9-8.6-.4-12a14.7 14.7 0 0 0-3-3.2C129.6 10.8 112.6 9 96.3 9ZM162.1 122.7l10.8 2.8s25 64 19.2 107.7-9.2 34.5-9.2 34.5-9.2-20.7-30-16.1ZM48.6 624.3c-2.8 3.7-2.2 9.1-4.7 13.1-2 3.5-6.1 5.3-8.8 8.3A22.3 22.3 0 0 0 33 649c-2.5 4.1-4.5 9.5-2 13.6 1.9 3.4 6 4.7 9.8 5.6 4.7 1.1 9.7 2 14.5 1.1s9.6-3.8 11.3-8.4a32.5 32.5 0 0 1 1.2-3.4c2.6-5.1 10.8-5.2 13.5-10.3 1.9-3.6.2-8-1.6-11.6l-5.2-11.2c-1.8-3.7-8.8-1.5-12.5-2.4-4.8-1.2-9.8-2.5-13.3 2.3Z" fill="#2f2e41"/><path d="m10.2 265.4 48.3 74.8s30 38 39.2 20.8-32.3-46-32.3-46l-31-57.6Z" fill="#ffb8b8"/><path d="m34.4 125-9.2-2.3s-18.5 5.7-23 30-1.2 120.8 4.5 122 28.5-17 32-13.1-7.8-15.8-4.3-26.1 0-110.5 0-110.5Z" fill="#2f2e41"/><g data-name="Group 13" fill="#00c896"><path data-name="Rectangle 55" d="M437.4 176.4h29.8v7.2h-29.8z"/><path data-name="Rectangle 56" d="M559.7 176.4h10.5v7.2h-10.5z"/><path data-name="Rectangle 57" d="M580.7 176.4h10.5v7.2h-10.5z"/><path data-name="Rectangle 58" d="M477.6 176.4h71.1v7.2h-71.1z"/><path data-name="Rectangle 59" d="M399.9 222.6h29.8v7.2h-29.8z"/><path data-name="Rectangle 60" d="M522.3 222.6h10.5v7.2h-10.5z"/><path data-name="Rectangle 61" d="M543.2 222.6h10.5v7.2h-10.5z"/><path data-name="Rectangle 62" d="M440.2 222.6h71.1v7.2h-71.1z"/><path data-name="Rectangle 63" d="M522.8 192.3h29.8v7.2h-29.8z"/><path data-name="Rectangle 64" d="M563 192.3h29.8v7.2H563z"/><path data-name="Rectangle 66" d="M399.9 192.3h10.5v7.2h-10.5z"/><path data-name="Rectangle 67" d="M420.9 192.3h10.5v7.2h-10.5z"/><path data-name="Rectangle 68" d="M441.8 192.3h71.1v7.2h-71.1z"/><path data-name="Rectangle 69" d="M461.1 207.8h29.8v7.2h-29.8z"/><path data-name="Rectangle 70" d="M420.9 207.8h29.8v7.2h-29.8z"/><path data-name="Rectangle 71" d="M399.9 207.8h10.5v7.2h-10.5z"/><path data-name="Rectangle 73" d="M582.3 207.8h10.5v7.2h-10.5z"/><path data-name="Rectangle 74" d="M500.8 207.8h71.1v7.2h-71.1z"/></g></svg>