<svg xmlns="http://www.w3.org/2000/svg" data-name="Layer 1" width="722.1" height="558.2"><path d="M653.6 534h-585a68.5 68.5 0 0 1-67-83.2L27.8 332h666.6l26 118.8a68.5 68.5 0 0 1-66.8 83.2ZM29.4 334 3.6 451.2a66.5 66.5 0 0 0 65 80.8h585a66.5 66.5 0 0 0 65-80.8L692.7 334Z" fill="#f2f2f2"/><path d="m579.3 78.4 30.7-4.6-4.9-21.3-18.4 9.2-38-14.3a7.7 7.7 0 1 0-5 10.2Z" fill="#ffb6b6"/><path d="M641.7 62.4c-2.4 9-57 19.2-57 17.2 0-5.5 3.6-17.1 1.5-20.1-1.1-1.8 14.4-6.2 14.4-6.2s8.5-3.2 19.6-7.2a19.7 19.7 0 0 1 18.8 2.6s5 4.7 2.7 13.7Z" fill="#00c896"/><path d="M112.8 437h-19a16 16 0 0 0 0 32h19a16 16 0 0 0 0-32ZM173.8 437h-19a16 16 0 0 0 0 32h19a16 16 0 0 0 0-32ZM234.8 437h-19a16 16 0 0 0 0 32h19a16 16 0 0 0 0-32ZM295.8 437h-19a16 16 0 0 0 0 32h19a16 16 0 0 0 0-32ZM356.8 437h-19a16 16 0 0 0 0 32h19a16 16 0 0 0 0-32ZM417.8 437h-19a16 16 0 0 0 0 32h19a16 16 0 0 0 0-32ZM478.8 437h-19a16 16 0 0 0 0 32h19a16 16 0 0 0 0-32ZM539.8 437h-19a16 16 0 0 0 0 32h19a16 16 0 0 0 0-32ZM600.8 437h-19a16 16 0 0 0 0 32h19a16 16 0 0 0 0-32ZM112.8 370h-19a16 16 0 0 0 0 32h19a16 16 0 0 0 0-32ZM173.8 370h-19a16 16 0 0 0 0 32h19a16 16 0 0 0 0-32Z" fill="#e6e6e6"/><path d="M234.8 370h-19a16 16 0 0 0 0 32h19a16 16 0 0 0 0-32Z" fill="#00c896"/><path d="M295.8 370h-19a16 16 0 0 0 0 32h19a16 16 0 0 0 0-32ZM356.8 370h-19a16 16 0 0 0 0 32h19a16 16 0 0 0 0-32ZM417.8 370h-19a16 16 0 0 0 0 32h19a16 16 0 0 0 0-32ZM478.8 370h-19a16 16 0 0 0 0 32h19a16 16 0 0 0 0-32ZM539.8 370h-19a16 16 0 0 0 0 32h19a16 16 0 0 0 0-32ZM600.8 370h-19a16 16 0 0 0 0 32h19a16 16 0 0 0 0-32ZM141.3 404.5h-19a16 16 0 0 0 0 32h19a16 16 0 0 0 0-32ZM202.3 404.5h-19a16 16 0 0 0 0 32h19a16 16 0 0 0 0-32ZM263.3 404.5h-19a16 16 0 0 0 0 32h19a16 16 0 0 0 0-32ZM324.3 404.5h-19a16 16 0 0 0 0 32h19a16 16 0 0 0 0-32ZM385.3 404.5h-19a16 16 0 0 0 0 32h19a16 16 0 0 0 0-32ZM446.3 404.5h-19a16 16 0 0 0 0 32h19a16 16 0 0 0 0-32ZM507.3 404.5h-19a16 16 0 0 0 0 32h19a16 16 0 0 0 0-32ZM568.3 404.5h-19a16 16 0 0 0 0 32h19a16 16 0 0 0 0-32ZM629.3 404.5h-19a16 16 0 0 0 0 32h19a16 16 0 0 0 0-32Z" fill="#e6e6e6"/><path d="M558.9 333H164.1a23.6 23.6 0 0 1-23.6-23.6v-.2c14-60.5 14-136.2 0-238.4v-.2A23.6 23.6 0 0 1 164.1 47H559a23.6 23.6 0 0 1 23.6 23.6v.2a566.9 566.9 0 0 0 0 238.4v.2A23.6 23.6 0 0 1 559 333Z" fill="#fff"/><path d="M558.9 333H164.1a23.6 23.6 0 0 1-23.6-23.6v-.2c14-60.5 14-136.2 0-238.4v-.2A23.6 23.6 0 0 1 164.1 47H559a23.6 23.6 0 0 1 23.6 23.6v.2a566.9 566.9 0 0 0 0 238.4v.2A23.6 23.6 0 0 1 559 333Zm-416.4-23.5a21.6 21.6 0 0 0 21.6 21.5H559a21.6 21.6 0 0 0 21.6-21.5 568.8 568.8 0 0 1 0-239A21.6 21.6 0 0 0 559 49H164.1a21.6 21.6 0 0 0-21.6 21.6c14 102.3 14 178.3 0 238.9Z" fill="#e6e6e6"/><path d="M517.5 117.5h-319a6.5 6.5 0 0 1 0-13h319a6.5 6.5 0 0 1 0 13ZM517.5 149h-319a6.5 6.5 0 0 1 0-13h319a6.5 6.5 0 0 1 0 13ZM517.5 180.5h-319a6.5 6.5 0 0 1 0-13h319a6.5 6.5 0 0 1 0 13ZM517.5 212h-319a6.5 6.5 0 0 1 0-13h319a6.5 6.5 0 0 1 0 13ZM517.5 243.5h-319a6.5 6.5 0 0 1 0-13h319a6.5 6.5 0 0 1 0 13Z" fill="#e6e6e6"/><path d="M341.5 275h-143a6.5 6.5 0 0 1 0-13h143a6.5 6.5 0 0 1 0 13Z" fill="#00c896"/><path d="M359.7 324.5h-26.3a2.7 2.7 0 0 1-2-1 3.2 3.2 0 0 1-.7-2.7l12.4-56a2.7 2.7 0 0 1 5.3-.1l14 56a3.2 3.2 0 0 1-.6 2.8 2.7 2.7 0 0 1-2.1 1Z" fill="#e6e6e6"/><path d="M690.5 345.5h-658a13.5 13.5 0 0 1 0-27h658a13.5 13.5 0 0 1 0 27Z" fill="#f2f2f2"/><path fill="#ffb6b6" d="M607.2 311.7h-9.6l-4.6-37h14.2v37z"/><path d="M609.6 321h-31v-.4a12 12 0 0 1 12.1-12l5.7-4.3 10.5 4.3h2.7Z" fill="#2f2e41"/><path fill="#ffb6b6" d="m694 299.2-8.6 4.3-20.7-31.1 12.7-6.3 16.6 33.1z"/><path d="m700.3 306.4-27.7 13.9-.2-.4a12 12 0 0 1 5.4-16.2l3.2-6.3 11.3-.9 2.4-1.2ZM603 143.5l52.9 1.8 4 7.4s4 30 2 32.2-3.2 2.1-2.2 5.8 3.8 39.3 3.8 39.3 22 45.3 23 48 2.1 1.6 1 2.6a39.1 39.1 0 0 0-2.6 3.2h-17.3s-9.3-23.5-17.9-32.6a51.6 51.6 0 0 1-13.6-29.1l-7.1-34-15.4 52s-2.7 51.5-2.2 54.2l.6 2.6-20.4.2s-2.2-4.4-1-6 .9-1.2-.4-3.8-.8-7-.8-7 7.7-104.4 7.7-106a5.3 5.3 0 0 0-.4-2.4v-2.2l2-7.6Z" fill="#2f2e41"/><path d="M625.8 47.4c-3.5 2-5.5 5.8-6.7 9.7a91.4 91.4 0 0 0-4 21.8l-1.2 22.2a91.4 91.4 0 0 1-11.6 40.8 7.1 7.1 0 0 0 4.4 10.3c19.2 5 55.6-1.3 55.6-1.3s1.5-.5 0-2-5-9.3-5-9.3l4-27.2 5.2-54.6C660.3 50 648 45.4 648 45.4l-3.2-5.7-16.1 1.2Z" fill="#00c896"/><circle cx="636" cy="20.8" r="15.5" fill="#ffb8b8"/><path d="M655 20a26.9 26.9 0 0 1-3.7 8.7 6 6 0 0 1-2 2.3 2.2 2.2 0 0 1-2.7-.3l-.4-.4a8 8 0 0 0 2-1.6 2.7 2.7 0 0 0 .5-2.5 1.7 1.7 0 0 0-2-1c-1 .3-1.5 1.6-2.5 1.4-.8-.2-1-1.2-1-2 .1-4.1-1.9-10-3.5-9.8a12.5 12.5 0 0 1-4.6-.7 12.1 12.1 0 0 0-4.6-.6l-.4.1a10.3 10.3 0 0 0-1-2.2 12 12 0 0 1-.1 2.5 23.8 23.8 0 0 1-3.9 1.2c-1.4.2-4.6 4.5-4.7 4a10.3 10.3 0 0 0-1-2.2 12 12 0 0 1-.2 2.6c-.7-.9-1.1-2-.9-1.1-2.3-5.3-1.4-9 2.3-13.5a7 7 0 0 1 2.7-2.2 3.5 3.5 0 0 1 3.4.3A11.4 11.4 0 0 1 638 .6c3.8 1.3 6.8 2.1 7.4 6.1a8.5 8.5 0 0 1 8.1 4 12.8 12.8 0 0 1 1.5 9.2Z" fill="#2f2e41"/><path d="M671.5 120.3v-31L649.7 91l6.4 19.6-19.7 35.4a7.7 7.7 0 1 0 9.3 6.5Z" fill="#ffb6b6"/><path d="M665 56.3c8.5 3.7 10.5 59.2 8.5 59-5.4-1-16.4-6.2-19.7-4.6-1.8.9-3.9-15-3.9-15s-2-9-4.3-20.5a19.7 19.7 0 0 1 5.4-18.3s5.4-4.3 14-.6Z" fill="#00c896"/><path d="M137.3 399.2a5.2 5.2 0 0 1 .4-8l-5.9-17.7 9.4 2.5 4 16.4a5.3 5.3 0 0 1-7.9 6.8Z" fill="#ffb6b6"/><path d="M154.3 303.2c1.5.9 10.7-1.3 12.5-.7-1 6 4.4 3.8-1.5 11.7s-17.5 31.7-20.2 40.6 0 21.3-.4 25.6a43.7 43.7 0 0 0 0 7.3c-3.2 0-6.3.6-9.5.2-3.4-9.7-5.7-23.4-7.2-31s-1.6-4.4-1-8.2 1-1 .2-4.7 2.3-8.2 5.1-10.8c1.2-3.5 2.8-6.7 4-10.1 8.7-7.7 9.3-12.1 18-20Z" fill="#3f3d56"/><path d="M236.4 388a5.2 5.2 0 0 1-6-5.4l-17.3-6.7 7.8-5.6 15.3 7.2a5.3 5.3 0 0 1 .2 10.5Z" fill="#ffb6b6"/><path d="M173 313.9c1.7-.6 5.9-9.1 7.5-10 4 4.5 5.7-1 8 8.5S202 346 207 353.8s16.5 13.6 19.5 16.6a43.7 43.7 0 0 0 5.7 4.6c-2 2.4-3.5 5.2-5.9 7.4-9.6-3.5-21.7-10.4-28.5-14s-4.4-1.6-6.9-4.6-.2-1.3-3.5-3-4.9-7-5.1-10.9c-2-3.1-3.5-6.4-5.4-9.5-.3-11.6-3.3-14.9-3.8-26.5Z" fill="#3f3d56"/><path fill="#ffb6b6" d="m186.1 366.4 8.7 38.7-55.6-3.5 15.2-38 31.7 2.8zM176.9 544.9h6.2l3-24h-9.2v24z"/><path d="m174.8 541.8 9.8-.6v4.3l9.4 6.5a2.6 2.6 0 0 1-1.5 4.8h-11.7l-2-4.2-.9 4.2h-4.4Z" fill="#2f2e41"/><path fill="#ffb6b6" d="m117.9 541.8 6.1 1.3 8-22.9-9-1.9-5.1 23.5z"/><path d="m116.5 538.4 9.8 1.5-1 4.1 7.9 8.3a2.6 2.6 0 0 1-2.5 4.4l-11.5-2.5-1.1-4.5-1.7 4-4.3-1ZM196.2 437.4c-4.4 24-5.5 34.5-5.5 34.5s3.3 3.8 1.1 6 0 6.6 0 6.6l-4.9 53-4-.6-9.5-1.6-3.4-.5L172 485s-2.1-4.4-1-5.5c1-1-1.1-7.6-1.1-7.6l-2.8-52-17 56.9s1.7 2.2 0 3.8a54 54 0 0 0-4.9 9.9l-10 35.3-.9 3-5.3-1-5.7-1.1-1-.2-1.9-.4-1.2-.2h-.4l-2-.4.6-2.7.3-1.4 8.5-37.9.2-.9.2-.9s-1-2.7.6-4.4a4.3 4.3 0 0 0 1-3.8 1.5 1.5 0 0 1 0-.2 2.3 2.3 0 0 1-.5-.9 3 3 0 0 1 1.1-2.7 4.7 4.7 0 0 0 .8-1.1c1.7-3.2 2.5-9.9 2.5-9.9s1.5-52.8 6.3-60.9c.3-.4 5.4-8.5 5.7-8.7 5.5-3.2 48 1.3 48 1.3s2.6 7 2.8 7.6c.6 4.1 5 19 1.2 39.4Z" fill="#2f2e41"/><path d="M183.3 310.1s.9-4.8-8-13.6a36.9 36.9 0 0 0-15.6 0c-13 17.2-10.7 14.1-14 23.8a13.5 13.5 0 0 0-1 6.8c1.6 7.8 4 48 3.6 50s-4.2 4.7-.6 4.7 50.7-.8 49.7-2.4-14.1-69.3-14.1-69.3Z" fill="#3f3d56"/><circle cx="168.6" cy="278.5" r="14.9" fill="#ffb6b6"/><path d="M156 284.2c-.2 1.8-1.3 3.4-2.2 5a19.8 19.8 0 0 0-.2 18.4c1.3 2.3 3 4.4 4 6.8a7.7 7.7 0 0 1-.1 6.5c-2.7-2.5-4-1.1-7-3.3 1.3 3.2.3 3.3 1.4 6.6l-15.1 4.3a18.3 18.3 0 0 0 5.2-21.4c-1.8-4-5.1-7.3-6.3-11.5a12.4 12.4 0 0 1 17-14.7c1.7-.5 3.3 1.5 3.2 3.3Z" fill="#2f2e41"/><path d="M174.7 261.8c-2-4.4-7.3-3.5-12.1-3a14.9 14.9 0 0 0-11.2 8.4 20.4 20.4 0 0 0-1 14 15.5 15.5 0 0 0 4.8 8.3c2.5 2 14.4 6.9 15.4 2.7-1.2 5.4-4.4 8.5-.7 12.7 1.9-5.8 10-11.2 11.8-17 .3-.8-.8-11-.6-11.8.6-1.9 1.3-3.7 1.7-5.5.5-2.4.8-5-.7-7s-5.1-2-5.9.3" fill="#2f2e41"/><path d="m172.3 280-.7-4c.5-5-.2-13 3-14.2l2.1 2c-1.3.5-3.7 8-4.4 16.3Z" fill="#ff6584"/><path d="M317.8 557a1.2 1.2 0 0 1-1.2 1.2H36.3a1.2 1.2 0 1 1 0-2.4h280.3a1.2 1.2 0 0 1 1.2 1.2Z" fill="#ccc"/><path d="M464.5 483h-206a16 16 0 0 0 0 32h206a16 16 0 0 0 0-32Z" fill="#e6e6e6"/></svg>